<mxfile host="app.diagrams.net" modified="2022-05-17T04:03:35.702Z" agent="5.0 (Windows NT 10.0; Win64; x64) AppleWebKit/537.36 (KHTML, like Gecko) Chrome/101.0.4951.54 Safari/537.36" etag="7YmA1YB_CTVFv1Q2UT-M" version="18.0.3" type="github" pages="2">
  <diagram name="Login" id="vvYQtBmdYc1zt_GZLRea">
    <mxGraphModel dx="1303" dy="787" grid="1" gridSize="10" guides="1" tooltips="1" connect="1" arrows="1" fold="1" page="1" pageScale="1" pageWidth="1100" pageHeight="850" background="none" math="0" shadow="0">
      <root>
        <mxCell id="J01vVkQWqHk7LzoT_Zzm-0" />
        <mxCell id="J01vVkQWqHk7LzoT_Zzm-1" parent="J01vVkQWqHk7LzoT_Zzm-0" />
        <mxCell id="mYpvJqxDb9yFrfAnFg5l-25" style="edgeStyle=orthogonalEdgeStyle;rounded=0;orthogonalLoop=1;jettySize=auto;html=1;exitX=0.5;exitY=1;exitDx=0;exitDy=0;" edge="1" parent="J01vVkQWqHk7LzoT_Zzm-1" source="J01vVkQWqHk7LzoT_Zzm-2">
          <mxGeometry relative="1" as="geometry">
            <mxPoint x="550.3333333333335" y="850" as="targetPoint" />
          </mxGeometry>
        </mxCell>
        <mxCell id="J01vVkQWqHk7LzoT_Zzm-2" value="" style="whiteSpace=wrap;html=1;rounded=0;shadow=0;labelBackgroundColor=none;strokeColor=#000000;strokeWidth=1;fillColor=none;fontFamily=Verdana;fontSize=12;fontColor=#000000;align=center;comic=1;" vertex="1" parent="J01vVkQWqHk7LzoT_Zzm-1">
          <mxGeometry x="20" y="60" width="1060" height="890" as="geometry" />
        </mxCell>
        <mxCell id="J01vVkQWqHk7LzoT_Zzm-3" value="LOGO" style="whiteSpace=wrap;html=1;rounded=0;shadow=0;labelBackgroundColor=none;strokeWidth=1;fontFamily=Verdana;fontSize=28;align=center;comic=1;" vertex="1" parent="J01vVkQWqHk7LzoT_Zzm-1">
          <mxGeometry x="397.25" y="80" width="305" height="100" as="geometry" />
        </mxCell>
        <mxCell id="mYpvJqxDb9yFrfAnFg5l-0" value="Label" style="label;whiteSpace=wrap;html=1;image=img/clipart/Gear_128x128.png" vertex="1" parent="J01vVkQWqHk7LzoT_Zzm-1">
          <mxGeometry x="360" y="250" width="230" height="60" as="geometry" />
        </mxCell>
        <mxCell id="mYpvJqxDb9yFrfAnFg5l-1" value="Label" style="label;whiteSpace=wrap;html=1;image=img/clipart/Gear_128x128.png" vertex="1" parent="J01vVkQWqHk7LzoT_Zzm-1">
          <mxGeometry x="350" y="330" width="400" height="60" as="geometry" />
        </mxCell>
        <mxCell id="mYpvJqxDb9yFrfAnFg5l-8" value="Container" style="swimlane;" vertex="1" parent="J01vVkQWqHk7LzoT_Zzm-1">
          <mxGeometry x="300.5" y="210" width="500" height="390" as="geometry" />
        </mxCell>
        <mxCell id="mYpvJqxDb9yFrfAnFg5l-9" value="Label" style="label;whiteSpace=wrap;html=1;image=img/clipart/Gear_128x128.png" vertex="1" parent="mYpvJqxDb9yFrfAnFg5l-8">
          <mxGeometry x="49.5" y="200" width="400.5" height="60" as="geometry" />
        </mxCell>
        <mxCell id="mYpvJqxDb9yFrfAnFg5l-16" value="" style="edgeStyle=orthogonalEdgeStyle;rounded=0;orthogonalLoop=1;jettySize=auto;html=1;" edge="1" parent="mYpvJqxDb9yFrfAnFg5l-8">
          <mxGeometry relative="1" as="geometry">
            <mxPoint x="254.83333333333348" y="320" as="sourcePoint" />
            <mxPoint x="254.83333333333348" y="320" as="targetPoint" />
          </mxGeometry>
        </mxCell>
        <mxCell id="nlbhTe7J_5BHKB7HRxU--0" value="Label" style="label;whiteSpace=wrap;html=1;image=img/clipart/Gear_128x128.png" vertex="1" parent="mYpvJqxDb9yFrfAnFg5l-8">
          <mxGeometry x="49.5" y="280" width="400.5" height="90" as="geometry" />
        </mxCell>
        <mxCell id="mYpvJqxDb9yFrfAnFg5l-23" value="Label" style="label;whiteSpace=wrap;html=1;image=img/clipart/Gear_128x128.png" vertex="1" parent="J01vVkQWqHk7LzoT_Zzm-1">
          <mxGeometry x="300" y="630" width="499.5" height="90" as="geometry" />
        </mxCell>
        <mxCell id="mYpvJqxDb9yFrfAnFg5l-27" value="" style="rounded=0;whiteSpace=wrap;html=1;" vertex="1" parent="J01vVkQWqHk7LzoT_Zzm-1">
          <mxGeometry x="20" y="750" width="1060" height="200" as="geometry" />
        </mxCell>
        <mxCell id="mYpvJqxDb9yFrfAnFg5l-32" value="Label" style="label;whiteSpace=wrap;html=1;image=img/clipart/Gear_128x128.png" vertex="1" parent="J01vVkQWqHk7LzoT_Zzm-1">
          <mxGeometry x="298.25" y="780" width="504.5" height="120" as="geometry" />
        </mxCell>
        <mxCell id="nlbhTe7J_5BHKB7HRxU--1" value="Icon" style="icon;html=1;image=img/clipart/Gear_128x128.png" vertex="1" parent="J01vVkQWqHk7LzoT_Zzm-1">
          <mxGeometry x="420" y="90" width="60" height="60" as="geometry" />
        </mxCell>
      </root>
    </mxGraphModel>
  </diagram>
  <diagram name="Formulario de registro" id="TEh1zE3kpqTZAhOw4--a">
    <mxGraphModel dx="1955" dy="1180" grid="1" gridSize="10" guides="1" tooltips="1" connect="1" arrows="1" fold="1" page="1" pageScale="1" pageWidth="1100" pageHeight="850" background="none" math="0" shadow="0">
      <root>
        <mxCell id="S3RBpqKrZi_EE3nzO5TS-0" />
        <mxCell id="S3RBpqKrZi_EE3nzO5TS-1" parent="S3RBpqKrZi_EE3nzO5TS-0" />
        <mxCell id="S3RBpqKrZi_EE3nzO5TS-2" style="edgeStyle=orthogonalEdgeStyle;rounded=0;orthogonalLoop=1;jettySize=auto;html=1;exitX=0.5;exitY=1;exitDx=0;exitDy=0;" edge="1" parent="S3RBpqKrZi_EE3nzO5TS-1" source="S3RBpqKrZi_EE3nzO5TS-3">
          <mxGeometry relative="1" as="geometry">
            <mxPoint x="550.3333333333335" y="850" as="targetPoint" />
          </mxGeometry>
        </mxCell>
        <mxCell id="S3RBpqKrZi_EE3nzO5TS-3" value="" style="whiteSpace=wrap;html=1;rounded=0;shadow=0;labelBackgroundColor=none;strokeColor=#000000;strokeWidth=1;fillColor=none;fontFamily=Verdana;fontSize=12;fontColor=#000000;align=center;comic=1;" vertex="1" parent="S3RBpqKrZi_EE3nzO5TS-1">
          <mxGeometry x="20" y="40" width="1060" height="1180" as="geometry" />
        </mxCell>
        <mxCell id="S3RBpqKrZi_EE3nzO5TS-4" value="LOGO" style="whiteSpace=wrap;html=1;rounded=0;shadow=0;labelBackgroundColor=none;strokeWidth=1;fontFamily=Verdana;fontSize=28;align=center;comic=1;" vertex="1" parent="S3RBpqKrZi_EE3nzO5TS-1">
          <mxGeometry x="398" y="60" width="305" height="100" as="geometry" />
        </mxCell>
        <mxCell id="S3RBpqKrZi_EE3nzO5TS-5" value="Label" style="label;whiteSpace=wrap;html=1;image=img/clipart/Gear_128x128.png" vertex="1" parent="S3RBpqKrZi_EE3nzO5TS-1">
          <mxGeometry x="360" y="250" width="230" height="50" as="geometry" />
        </mxCell>
        <mxCell id="S3RBpqKrZi_EE3nzO5TS-6" value="Label" style="label;whiteSpace=wrap;html=1;image=img/clipart/Gear_128x128.png" vertex="1" parent="S3RBpqKrZi_EE3nzO5TS-1">
          <mxGeometry x="350" y="320" width="400" height="60" as="geometry" />
        </mxCell>
        <mxCell id="S3RBpqKrZi_EE3nzO5TS-7" value="Container" style="swimlane;" vertex="1" parent="S3RBpqKrZi_EE3nzO5TS-1">
          <mxGeometry x="300.5" y="210" width="500" height="770" as="geometry" />
        </mxCell>
        <mxCell id="S3RBpqKrZi_EE3nzO5TS-8" value="Label" style="label;whiteSpace=wrap;html=1;image=img/clipart/Gear_128x128.png" vertex="1" parent="S3RBpqKrZi_EE3nzO5TS-7">
          <mxGeometry x="49.5" y="185" width="400.5" height="60" as="geometry" />
        </mxCell>
        <mxCell id="S3RBpqKrZi_EE3nzO5TS-9" value="" style="edgeStyle=orthogonalEdgeStyle;rounded=0;orthogonalLoop=1;jettySize=auto;html=1;" edge="1" parent="S3RBpqKrZi_EE3nzO5TS-7">
          <mxGeometry relative="1" as="geometry">
            <mxPoint x="254.83333333333348" y="320" as="sourcePoint" />
            <mxPoint x="254.83333333333348" y="320" as="targetPoint" />
          </mxGeometry>
        </mxCell>
        <mxCell id="cJrkmLORtY1yD6omNQM2-0" value="Label" style="label;whiteSpace=wrap;html=1;image=img/clipart/Gear_128x128.png" vertex="1" parent="S3RBpqKrZi_EE3nzO5TS-7">
          <mxGeometry x="49.5" y="280" width="400" height="60" as="geometry" />
        </mxCell>
        <mxCell id="cJrkmLORtY1yD6omNQM2-2" value="Label" style="label;whiteSpace=wrap;html=1;image=img/clipart/Gear_128x128.png" vertex="1" parent="S3RBpqKrZi_EE3nzO5TS-7">
          <mxGeometry x="50" y="380" width="400" height="60" as="geometry" />
        </mxCell>
        <mxCell id="cJrkmLORtY1yD6omNQM2-3" value="Label" style="label;whiteSpace=wrap;html=1;image=img/clipart/Gear_128x128.png" vertex="1" parent="S3RBpqKrZi_EE3nzO5TS-7">
          <mxGeometry x="50" y="460" width="400" height="60" as="geometry" />
        </mxCell>
        <mxCell id="cJrkmLORtY1yD6omNQM2-4" value="Label" style="label;whiteSpace=wrap;html=1;image=img/clipart/Gear_128x128.png" vertex="1" parent="S3RBpqKrZi_EE3nzO5TS-7">
          <mxGeometry x="50" y="560" width="400" height="60" as="geometry" />
        </mxCell>
        <mxCell id="cJrkmLORtY1yD6omNQM2-5" value="" style="line;strokeWidth=4;html=1;perimeter=backbonePerimeter;points=[];outlineConnect=0;" vertex="1" parent="S3RBpqKrZi_EE3nzO5TS-7">
          <mxGeometry y="650" width="500" height="10" as="geometry" />
        </mxCell>
        <mxCell id="cJrkmLORtY1yD6omNQM2-6" value="Label" style="label;whiteSpace=wrap;html=1;image=img/clipart/Gear_128x128.png" vertex="1" parent="S3RBpqKrZi_EE3nzO5TS-7">
          <mxGeometry x="49.5" y="700" width="400" height="60" as="geometry" />
        </mxCell>
        <mxCell id="S3RBpqKrZi_EE3nzO5TS-15" value="" style="rounded=0;whiteSpace=wrap;html=1;" vertex="1" parent="S3RBpqKrZi_EE3nzO5TS-1">
          <mxGeometry x="19.75" y="1020" width="1060" height="200" as="geometry" />
        </mxCell>
        <mxCell id="S3RBpqKrZi_EE3nzO5TS-17" value="Label" style="label;whiteSpace=wrap;html=1;image=img/clipart/Gear_128x128.png" vertex="1" parent="S3RBpqKrZi_EE3nzO5TS-1">
          <mxGeometry x="295" y="1090" width="504.5" height="60" as="geometry" />
        </mxCell>
      </root>
    </mxGraphModel>
  </diagram>
</mxfile>
